<?xml version="1.0" encoding="UTF-8"?>
<svg width="2358px" height="447px" viewBox="0 0 2358 447" version="1.1" xmlns="http://www.w3.org/2000/svg" xmlns:xlink="http://www.w3.org/1999/xlink">
    <title>Untitled</title>
    <g id="Page-1" stroke="none" stroke-width="1" fill="none" fill-rule="evenodd">
        <g id="footer" fill-rule="nonzero">
            <g id="path-1-link" transform="translate(0.000000, 111.000000)" fill="#ADBAC7">
                <path d="M70.2,239 C119.4,239 153.6,217.7 153.6,174.5 C153.6,144.5 135,127.1 108.6,122 L108.6,120.5 C129.3,113.9 141,94.7 141,72.8 C141,34.1 110.1,19.1 65.4,19.1 L0,19.1 L0,239 L70.2,239 Z M60.6,112.7 L27.9,112.7 L27.9,41 L61.8,41 C96,41 113.7,50.6 113.7,76.4 C113.7,98.6 98.4,112.7 60.6,112.7 Z M66.3,216.8 L27.9,216.8 L27.9,134 L66.3,134 C104.7,134 126.3,146.3 126.3,173.6 C126.3,203.3 104.1,216.8 66.3,216.8 Z M242.1,242.9 C264.6,242.9 280.8,231.2 296.1,213.5 L297,213.5 L299.1,239 L321.9,239 L321.9,76.1 L294.6,76.1 L294.6,191.6 C279,211.1 267.3,219.2 250.5,219.2 C228.9,219.2 219.9,206.3 219.9,176 L219.9,76.1 L192.6,76.1 L192.6,179.3 C192.6,220.7 207.9,242.9 242.1,242.9 Z M390.6,42.5 C401.4,42.5 409.5,35 409.5,24.8 C409.5,13.7 401.4,7.1 390.6,7.1 C379.8,7.1 371.7,13.7 371.7,24.8 C371.7,35 379.8,42.5 390.6,42.5 Z M404.1,239 L404.1,76.1 L376.8,76.1 L376.8,239 L404.1,239 Z M488.1,242.9 C495.3,242.9 500.1,242 504,240.5 L500.1,219.5 C497.561538,220.007693 496.311834,220.085798 495.078654,220.097816 L494.4,220.1 L494.4,220.1 C490.2,220.1 486.6,216.8 486.6,208.4 L486.6,0.2 L459.3,0.2 L459.3,206.6 C459.3,229.7 467.7,242.9 488.1,242.9 Z M596.1,242.9 C606,242.9 616.8,239.9 626.1,236.9 L620.7,216.5 C615.3,218.6 607.8,220.7 602.1,220.7 C583.2,220.7 576.9,209.3 576.9,189.2 L576.9,98.3 L621,98.3 L621,76.1 L576.9,76.1 L576.9,30.5 L554.1,30.5 L550.8,76.1 L525.3,77.6 L525.3,98.3 L549.6,98.3 L549.6,188.6 C549.6,221.3 561.3,242.9 596.1,242.9 Z M783,239 L805.8,151.7 C810,136.1 813.3,120.8 816.9,104.3 L818.4,104.3 C822.3,120.8 825.3,135.8 829.5,151.1 L853.2,239 L886.2,239 L930,76.1 L904.2,76.1 L880.2,170.3 C876.6,185.9 873.6,200.6 870,215.9 L868.8,215.9 C864.9,200.6 861.3,185.9 857.4,170.3 L831.9,76.1 L805.2,76.1 L780,170.3 C775.8,185.6 772.5,200.6 768.9,215.9 L767.4,215.9 C764.4,200.6 761.1,185.9 757.8,170.3 L733.5,76.1 L705.6,76.1 L750.9,239 L783,239 Z M979.5,42.5 C990.3,42.5 998.4,35 998.4,24.8 C998.4,13.7 990.3,7.1 979.5,7.1 C968.7,7.1 960.6,13.7 960.6,24.8 C960.6,35 968.7,42.5 979.5,42.5 Z M993,239 L993,76.1 L965.7,76.1 L965.7,239 L993,239 Z M1099.5,242.9 C1109.4,242.9 1120.2,239.9 1129.5,236.9 L1124.1,216.5 C1118.7,218.6 1111.2,220.7 1105.5,220.7 C1086.6,220.7 1080.3,209.3 1080.3,189.2 L1080.3,98.3 L1124.4,98.3 L1124.4,76.1 L1080.3,76.1 L1080.3,30.5 L1057.5,30.5 L1054.2,76.1 L1028.7,77.6 L1028.7,98.3 L1053,98.3 L1053,188.6 C1053,221.3 1064.7,242.9 1099.5,242.9 Z M1188.6,239 L1188.6,120.8 C1205.1,104.3 1216.5,95.9 1233.3,95.9 C1254.9,95.9 1264.2,108.8 1264.2,139.4 L1264.2,239 L1291.5,239 L1291.5,135.8 C1291.5,94.1 1275.9,71.9 1241.7,71.9 C1219.5,71.9 1202.7,84.2 1187.7,99.2 L1188.6,65.6 L1188.6,0.2 L1161.3,0.2 L1161.3,239 L1188.6,239 Z" id="path-1"></path>
            </g>
            <g id="path-2-link" transform="translate(1801.000000, 121.000000)" fill="#ADBAC7">
                <path d="M19.4,35.5 C30.2,35.5 38.3,28 38.3,17.8 C38.3,6.7 30.2,0.1 19.4,0.1 C8.6,0.1 0.5,6.7 0.5,17.8 C0.5,28 8.6,35.5 19.4,35.5 Z M32.9,232 L32.9,69.1 L5.6,69.1 L5.6,232 L32.9,232 Z M115.4,232 L115.4,113.8 C131.9,97.3 143.3,88.9 160.1,88.9 C181.7,88.9 191,101.8 191,132.4 L191,232 L218.3,232 L218.3,128.8 C218.3,87.1 202.7,64.9 168.5,64.9 C146.3,64.9 129.5,77.2 113.9,92.5 L113,92.5 L110.6,69.1 L88.1,69.1 L88.1,232 L115.4,232 Z" id="path-2"></path>
            </g>
            <text id="❤️" fill="#030303" font-family="AppleColorEmoji, Apple Color Emoji" font-size="300" font-weight="normal">
                <tspan x="1389" y="353">❤️</tspan>
            </text>
            <path d="M2298.98389,442.623623 L2292.91803,436.555073 C2291.2637,434.348327 2290.71227,431.038208 2290.71227,429.38315 C2290.71227,427.728089 2288.5065,425.521343 2286.30073,424.41797 L2276.37478,422.762912 C2273.06614,422.211227 2270.30893,421.107854 2268.10316,420.004481 L2251.55992,413.935931 C2250.45703,413.935931 2247.14839,411.729185 2246.59694,410.074124 L2230.60514,374.214509 C2229.50226,372.559451 2227.29649,369.801017 2225.64217,368.697647 L2211.30469,352.147055 C2209.65037,350.491994 2207.4446,347.733563 2206.34172,345.526817 L2142.3745,232.982795 C2140.72018,231.327736 2140.72018,228.569304 2140.72018,226.914245 L2142.3745,189.39957 C2143.47739,187.192824 2142.3745,184.986079 2140.72018,182.779333 L2139.06586,181.67596 C2139.06586,180.020901 2136.86009,177.262469 2136.86009,175.60741 L2135.20577,166.780428 C2135.20577,164.573682 2133.55144,161.81525 2133.55144,159.608505 L2133,153.539955 C2133,151.884895 2133.55144,148.023091 2135.75721,147.471404 L2145.13171,139.747795 C2147.33748,139.196108 2147.88892,136.989363 2147.88892,134.782617 L2147.88892,122.09383 C2147.88892,120.438771 2148.9918,116.576966 2148.9918,114.921907 L2152.30045,102.784806 C2153.40334,100.578061 2153.95478,97.8196292 2155.05766,96.16457 L2167.18937,79.0622918 C2168.29226,76.8555461 2171.04946,75.2004869 2172.70379,75.2004869 L2173.25523,75.2004869 C2175.461,75.2004869 2178.2182,74.6488007 2180.42397,72.442055 L2196.96721,57.5465225 C2199.72442,55.3397768 2201.37874,53.1330314 2201.93018,50.9262857 L2209.65037,34.375694 C2210.20181,32.1689483 2210.20181,29.4105164 2210.20181,27.2037708 L2208.54748,17.8251021 C2208.54748,15.0666702 2209.65037,12.8599246 2210.20181,10.6531791 L2212.95901,8.99811989 C2214.61334,6.79137434 2217.92199,5.68800158 2219.02487,4.58462879 L2225.64217,1.27451046 C2227.29649,0.171137674 2229.50226,1.27451046 2230.60514,2.92956962 L2232.81091,10.6531791 C2233.36235,12.8599246 2234.46523,15.0666702 2234.46523,17.8251021 L2234.46523,53.1330314 C2234.46523,54.2364041 2234.46523,58.098209 2235.01667,60.3049544 L2248.25127,93.9578243 C2248.80271,96.16457 2251.00848,98.3713154 2251.55992,100.026375 L2265.8974,116.02528 C2267.00028,116.576966 2269.75749,119.335398 2270.30893,120.990457 L2289.05794,152.436582 C2292.36659,156.850073 2291.2637,158.505132 2292.91803,164.573682 C2292.91803,166.780428 2294.57235,170.642233 2295.67524,172.297292 L2305.60118,200.984984 C2307.25551,205.398475 2316.07857,255.05025 2319.38722,275.462647 C2319.93866,277.117706 2319.38722,279.876138 2319.38722,282.082884 C2319.38722,284.289629 2319.38722,288.151434 2321.04155,290.35818 L2333.7247,322.35599 C2334.27614,324.562733 2336.48191,327.321167 2337.03335,328.976225 L2343.0992,342.768386 C2343.65065,344.975132 2343.65065,348.836936 2343.65065,350.491994 L2343.0992,353.802113 C2343.0992,356.008859 2342.54776,359.318978 2340.89344,361.525724 L2338.68767,366.490901 L2338.68767,374.214509 L2340.89344,385.248236 C2342.54776,386.903297 2343.65065,390.213416 2344.75353,391.316789 L2356.88524,404.005574 C2357.43668,405.660635 2359.09101,408.419066 2356.88524,408.970751 L2350.81939,419.452793 C2349.16506,421.107854 2347.51074,422.762912 2345.30497,422.762912 L2326.00452,429.38315 C2323.79875,429.38315 2319.93866,431.038208 2319.38722,432.693266 L2312.76992,441.52025 C2311.66704,443.175308 2309.46128,444.830369 2307.25551,444.830369 L2305.60118,444.830369 C2303.39542,444.830369 2300.63821,443.175308 2298.98389,442.623623 Z" id="Path" fill="#6EAC7D" transform="translate(2245.500000, 222.830369) scale(-1, 1) rotate(-180.000000) translate(-2245.500000, -222.830369) "></path>
        </g>
    </g>
</svg>