<?xml version="1.0" encoding="UTF-8"?>
<svg width="796px" height="150px" viewBox="0 0 796 150" version="1.1" xmlns="http://www.w3.org/2000/svg" xmlns:xlink="http://www.w3.org/1999/xlink">
    <title>Untitled</title>
    <g id="Page-1" stroke="none" stroke-width="1" fill="none" fill-rule="evenodd">
        <text id="Built-with" font-family="NotoSansCJKtc-Regular, Noto Sans CJK TC" font-size="100" font-weight="normal" letter-spacing="-0.615384579" fill="#030303">
            <tspan x="0" y="117">Built with</tspan>
        </text>
        <text id="in" font-family="NotoSansCJKtc-Regular, Noto Sans CJK TC" font-size="100" font-weight="normal" letter-spacing="-0.615384579" fill="#030303">
            <tspan x="603" y="118">in</tspan>
        </text>
        <text id="❤️" font-family="AppleColorEmoji, Apple Color Emoji" font-size="100" font-weight="normal" letter-spacing="-0.615384579" fill="#030303">
            <tspan x="473" y="118">❤️</tspan>
        </text>
        <path d="M776.327962,147.874541 L774.30601,145.851691 C773.754568,145.116109 773.570755,144.012736 773.570755,143.46105 C773.570755,142.909363 772.835499,142.173781 772.100244,141.80599 L768.791595,141.254304 C767.688712,141.070409 766.769643,140.702618 766.034388,140.334827 L760.519973,138.311977 C760.152345,138.311977 759.049462,137.576395 758.865648,137.024708 L753.535047,125.071503 C753.16742,124.519817 752.432164,123.600339 751.880723,123.232549 L747.101563,117.715685 C746.550122,117.163998 745.814867,116.244521 745.447239,115.508939 L724.124835,77.9942645 C723.573394,77.4425781 723.573394,76.5231008 723.573394,75.9714144 L724.124835,63.4665228 C724.492463,62.730941 724.124835,61.9953591 723.573394,61.2597773 L723.021952,60.8919863 C723.021952,60.3402999 722.286697,59.4208226 722.286697,58.8691362 L721.735255,55.9268088 C721.735255,55.191227 721.183814,54.2717496 721.183814,53.5361678 L721,51.5133177 C721,50.9616313 721.183814,49.6743631 721.919069,49.4904676 L725.043904,46.9159311 C725.77916,46.7320356 725.962973,45.9964538 725.962973,45.2608719 L725.962973,41.0312763 C725.962973,40.4795899 726.330601,39.1923216 726.330601,38.6406352 L727.433484,34.594935 C727.801112,33.8593532 727.984925,32.9398759 728.352553,32.3881895 L732.396457,26.6874301 C732.764085,25.9518482 733.683154,25.4001618 734.234596,25.4001618 L734.418409,25.4001618 C735.153665,25.4001618 736.072734,25.2162664 736.807989,24.4806845 L742.322404,19.515507 C743.241473,18.7799251 743.792915,18.0443433 743.976728,17.3087614 L746.550122,11.7918975 C746.733936,11.0563156 746.733936,10.1368383 746.733936,9.40125648 L746.182494,6.27503359 C746.182494,5.35555627 746.550122,4.61997442 746.733936,3.88439256 L747.653005,3.33270617 C748.204446,2.59712432 749.307329,2.2293334 749.674957,1.86154247 L751.880723,0.758169687 C752.432164,0.39037876 753.16742,0.758169687 753.535047,1.30985608 L754.270303,3.88439256 C754.454117,4.61997442 754.821744,5.35555627 754.821744,6.27503359 L754.821744,18.0443433 C754.821744,18.4121342 754.821744,19.6994025 755.005558,20.4349843 L759.41709,31.6526076 C759.600904,32.3881895 760.336159,33.1237713 760.519973,33.6754577 L765.299132,39.0084262 C765.66676,39.1923216 766.585829,40.1117989 766.769643,40.6634853 L773.019313,51.1455268 C774.122196,52.6166905 773.754568,53.1683769 774.30601,55.191227 C774.30601,55.9268088 774.857451,57.2140771 775.225079,57.7657635 L778.533728,67.3283276 C779.085169,68.7994913 782.026191,85.350083 783.129074,92.1542152 C783.312887,92.7059016 783.129074,93.6253789 783.129074,94.3609607 C783.129074,95.0965426 783.129074,96.3838108 783.680515,97.1193927 L787.908233,107.78533 C788.092047,108.520911 788.827302,109.440389 789.011116,109.992075 L791.033068,114.589462 C791.216882,115.325044 791.216882,116.612312 791.216882,117.163998 L791.033068,118.267371 C791.033068,119.002953 790.849254,120.106326 790.297813,120.841908 L789.562558,122.496967 L789.562558,125.071503 L790.297813,128.749412 C790.849254,129.301099 791.216882,130.404472 791.58451,130.772263 L795.628414,135.001858 C795.812228,135.553545 796.363669,136.473022 795.628414,136.656917 L793.606462,140.150931 C793.05502,140.702618 792.503579,141.254304 791.768324,141.254304 L785.33484,143.46105 C784.599584,143.46105 783.312887,144.012736 783.129074,144.564422 L780.923308,147.50675 C780.55568,148.058436 779.820425,148.610123 779.085169,148.610123 L778.533728,148.610123 C777.798473,148.610123 776.879404,148.058436 776.327962,147.874541 Z" id="Path" fill="#6EAC7D" fill-rule="nonzero" transform="translate(758.500000, 74.610123) scale(-1, 1) rotate(-180.000000) translate(-758.500000, -74.610123) "></path>
    </g>
</svg>