<?xml version="1.0" encoding="UTF-8"?>
<svg width="786px" height="150px" viewBox="0 0 786 150" version="1.1" xmlns="http://www.w3.org/2000/svg" xmlns:xlink="http://www.w3.org/1999/xlink">
    <title>footer</title>
    <defs>
        <path d="M23.4,117 C39.8,117 51.2,109.9 51.2,95.5 C51.2,85.5 45,79.7 36.2,78 L36.2,77.5 C43.1,75.3 47,68.9 47,61.6 C47,48.7 36.7,43.7 21.8,43.7 L0,43.7 L0,117 L23.4,117 Z M20.2,74.9 L9.3,74.9 L9.3,51 L20.6,51 C32,51 37.9,54.2 37.9,62.8 C37.9,70.2 32.8,74.9 20.2,74.9 Z M22.1,109.6 L9.3,109.6 L9.3,82 L22.1,82 C34.9,82 42.1,86.1 42.1,95.2 C42.1,105.1 34.7,109.6 22.1,109.6 Z M80.7,118.3 C88.2,118.3 93.6,114.4 98.7,108.5 L99,108.5 L99.7,117 L107.3,117 L107.3,62.7 L98.2,62.7 L98.2,101.2 C93,107.7 89.1,110.4 83.5,110.4 C76.3,110.4 73.3,106.1 73.3,96 L73.3,62.7 L64.2,62.7 L64.2,97.1 C64.2,110.9 69.3,118.3 80.7,118.3 Z M130.2,51.5 C133.8,51.5 136.5,49 136.5,45.6 C136.5,41.9 133.8,39.7 130.2,39.7 C126.6,39.7 123.9,41.9 123.9,45.6 C123.9,49 126.6,51.5 130.2,51.5 Z M134.7,117 L134.7,62.7 L125.6,62.7 L125.6,117 L134.7,117 Z M162.7,118.3 C165.1,118.3 166.7,118 168,117.5 L166.7,110.5 C165.853846,110.669231 165.437278,110.695266 165.026218,110.699272 L164.8,110.7 L164.8,110.7 C163.4,110.7 162.2,109.6 162.2,106.8 L162.2,37.4 L153.1,37.4 L153.1,106.2 C153.1,113.9 155.9,118.3 162.7,118.3 Z M198.7,118.3 C202,118.3 205.6,117.3 208.7,116.3 L206.9,109.5 C205.1,110.2 202.6,110.9 200.7,110.9 C194.4,110.9 192.3,107.1 192.3,100.4 L192.3,70.1 L207,70.1 L207,62.7 L192.3,62.7 L192.3,47.5 L184.7,47.5 L183.6,62.7 L175.1,63.2 L175.1,70.1 L183.2,70.1 L183.2,100.2 C183.2,111.1 187.1,118.3 198.7,118.3 Z M261,117 L268.6,87.9 C270,82.7 271.1,77.6 272.3,72.1 L272.8,72.1 C274.1,77.6 275.1,82.6 276.5,87.7 L284.4,117 L295.4,117 L310,62.7 L301.4,62.7 L293.4,94.1 C292.2,99.3 291.2,104.2 290,109.3 L289.6,109.3 C288.3,104.2 287.1,99.3 285.8,94.1 L277.3,62.7 L268.4,62.7 L260,94.1 C258.6,99.2 257.5,104.2 256.3,109.3 L255.8,109.3 C254.8,104.2 253.7,99.3 252.6,94.1 L244.5,62.7 L235.2,62.7 L250.3,117 L261,117 Z M326.5,51.5 C330.1,51.5 332.8,49 332.8,45.6 C332.8,41.9 330.1,39.7 326.5,39.7 C322.9,39.7 320.2,41.9 320.2,45.6 C320.2,49 322.9,51.5 326.5,51.5 Z M331,117 L331,62.7 L321.9,62.7 L321.9,117 L331,117 Z M366.5,118.3 C369.8,118.3 373.4,117.3 376.5,116.3 L374.7,109.5 C372.9,110.2 370.4,110.9 368.5,110.9 C362.2,110.9 360.1,107.1 360.1,100.4 L360.1,70.1 L374.8,70.1 L374.8,62.7 L360.1,62.7 L360.1,47.5 L352.5,47.5 L351.4,62.7 L342.9,63.2 L342.9,70.1 L351,70.1 L351,100.2 C351,111.1 354.9,118.3 366.5,118.3 Z M396.2,117 L396.2,77.6 C401.7,72.1 405.5,69.3 411.1,69.3 C418.3,69.3 421.4,73.6 421.4,83.8 L421.4,117 L430.5,117 L430.5,82.6 C430.5,68.7 425.3,61.3 413.9,61.3 C406.5,61.3 400.9,65.4 395.9,70.4 L396.2,59.2 L396.2,37.4 L387.1,37.4 L387.1,117 L396.2,117 Z" id="path-1"></path>
        <path d="M606.8,52.5 C610.4,52.5 613.1,50 613.1,46.6 C613.1,42.9 610.4,40.7 606.8,40.7 C603.2,40.7 600.5,42.9 600.5,46.6 C600.5,50 603.2,52.5 606.8,52.5 Z M611.3,118 L611.3,63.7 L602.2,63.7 L602.2,118 L611.3,118 Z M638.8,118 L638.8,78.6 C644.3,73.1 648.1,70.3 653.7,70.3 C660.9,70.3 664,74.6 664,84.8 L664,118 L673.1,118 L673.1,83.6 C673.1,69.7 667.9,62.3 656.5,62.3 C649.1,62.3 643.5,66.4 638.3,71.5 L638,71.5 L637.2,63.7 L629.7,63.7 L629.7,118 L638.8,118 Z" id="path-2"></path>
    </defs>
    <g id="Page-1" stroke="none" stroke-width="1" fill="none" fill-rule="evenodd">
        <g id="footer" fill-rule="nonzero">
            <g id="Builtwith">
                <use fill="#000000" xlink:href="#path-1"></use>
                <use fill="#030303" xlink:href="#path-1"></use>
            </g>
            <g id="in">
                <use fill="#000000" xlink:href="#path-2"></use>
                <use fill="#030303" xlink:href="#path-2"></use>
            </g>
            <text id="❤️" fill="#030303" font-family="AppleColorEmoji, Apple Color Emoji" font-size="100" font-weight="normal">
                <tspan x="463" y="118">❤️</tspan>
            </text>
            <path d="M766.327962,147.874541 L764.30601,145.851691 C763.754568,145.116109 763.570755,144.012736 763.570755,143.46105 C763.570755,142.909363 762.835499,142.173781 762.100244,141.80599 L758.791595,141.254304 C757.688712,141.070409 756.769643,140.702618 756.034388,140.334827 L750.519973,138.311977 C750.152345,138.311977 749.049462,137.576395 748.865648,137.024708 L743.535047,125.071503 C743.16742,124.519817 742.432164,123.600339 741.880723,123.232549 L737.101563,117.715685 C736.550122,117.163998 735.814867,116.244521 735.447239,115.508939 L714.124835,77.994265 C713.573394,77.4425786 713.573394,76.5231013 713.573394,75.9714149 L714.124835,63.4665233 C714.492463,62.7309415 714.124835,61.9953596 713.573394,61.2597778 L713.021952,60.8919868 C713.021952,60.3403004 712.286697,59.4208231 712.286697,58.8691367 L711.735255,55.9268093 C711.735255,55.1912275 711.183814,54.2717501 711.183814,53.5361683 L711,51.5133182 C711,50.9616318 711.183814,49.6743636 711.919069,49.4904681 L715.043904,46.9159316 C715.77916,46.7320361 715.962973,45.9964543 715.962973,45.2608724 L715.962973,41.0312768 C715.962973,40.4795904 716.330601,39.1923221 716.330601,38.6406357 L717.433484,34.5949355 C717.801112,33.8593537 717.984925,32.9398764 718.352553,32.38819 L722.396457,26.6874306 C722.764085,25.9518487 723.683154,25.4001623 724.234596,25.4001623 L724.418409,25.4001623 C725.153665,25.4001623 726.072734,25.2162669 726.807989,24.480685 L732.322404,19.5155075 C733.241473,18.7799256 733.792915,18.0443438 733.976728,17.3087619 L736.550122,11.791898 C736.733936,11.0563161 736.733936,10.1368388 736.733936,9.40125694 L736.182494,6.27503405 C736.182494,5.35555673 736.550122,4.61997488 736.733936,3.88439302 L737.653005,3.33270663 C738.204446,2.59712478 739.307329,2.22933386 739.674957,1.86154293 L741.880723,0.758170152 C742.432164,0.390379225 743.16742,0.758170152 743.535047,1.30985654 L744.270303,3.88439302 C744.454117,4.61997488 744.821744,5.35555673 744.821744,6.27503405 L744.821744,18.0443438 C744.821744,18.4121347 744.821744,19.699403 745.005558,20.4349848 L749.41709,31.6526081 C749.600904,32.38819 750.336159,33.1237718 750.519973,33.6754582 L755.299132,39.0084267 C755.66676,39.1923221 756.585829,40.1117994 756.769643,40.6634858 L763.019313,51.1455273 C764.122196,52.616691 763.754568,53.1683774 764.30601,55.1912275 C764.30601,55.9268093 764.857451,57.2140776 765.225079,57.765764 L768.533728,67.3283281 C769.085169,68.7994918 772.026191,85.3500835 773.129074,92.1542157 C773.312887,92.7059021 773.129074,93.6253794 773.129074,94.3609612 C773.129074,95.0965431 773.129074,96.3838113 773.680515,97.1193932 L777.908233,107.78533 C778.092047,108.520911 778.827302,109.440389 779.011116,109.992075 L781.033068,114.589462 C781.216882,115.325044 781.216882,116.612312 781.216882,117.163998 L781.033068,118.267371 C781.033068,119.002953 780.849254,120.106326 780.297813,120.841908 L779.562558,122.496967 L779.562558,125.071503 L780.297813,128.749412 C780.849254,129.301099 781.216882,130.404472 781.58451,130.772263 L785.628414,135.001858 C785.812228,135.553545 786.363669,136.473022 785.628414,136.656917 L783.606462,140.150931 C783.05502,140.702618 782.503579,141.254304 781.768324,141.254304 L775.33484,143.46105 C774.599584,143.46105 773.312887,144.012736 773.129074,144.564422 L770.923308,147.50675 C770.55568,148.058436 769.820425,148.610123 769.085169,148.610123 L768.533728,148.610123 C767.798473,148.610123 766.879404,148.058436 766.327962,147.874541 Z" id="Path" fill="#6EAC7D" transform="translate(748.500000, 74.610123) scale(-1, 1) rotate(-180.000000) translate(-748.500000, -74.610123) "></path>
        </g>
    </g>
</svg>