<?xml version="1.0" encoding="UTF-8"?>
<svg width="409px" height="806px" viewBox="0 0 409 806" version="1.1" xmlns="http://www.w3.org/2000/svg" xmlns:xlink="http://www.w3.org/1999/xlink">
    <title>Untitled</title>
    <g id="Page-1" stroke="none" stroke-width="1" fill="none" fill-rule="evenodd">
        <path d="M301,801.610123 L290,790.610123 C287,786.610123 286,780.610123 286,777.610123 C286,774.610123 282,770.610123 278,768.610123 L260,765.610123 C254,764.610123 249,762.610123 245,760.610123 L215,749.610123 C213,749.610123 207,745.610123 206,742.610123 L177,677.610123 C175,674.610123 171,669.610123 168,667.610123 L142,637.610123 C139,634.610123 135,629.610123 133,625.610123 L17,421.610123 C14,418.610123 14,413.610123 14,410.610123 L17,342.610123 C19,338.610123 17,334.610123 14,330.610123 L11,328.610123 C11,325.610123 7,320.610123 7,317.610123 L4,301.610123 C4,297.610123 1,292.610123 1,288.610123 L-5.68434189e-14,277.610123 C-5.68434189e-14,274.610123 1,267.610123 5,266.610123 L22,252.610123 C26,251.610123 27,247.610123 27,243.610123 L27,220.610123 C27,217.610123 29,210.610123 29,207.610123 L35,185.610123 C37,181.610123 38,176.610123 40,173.610123 L62,142.610123 C64,138.610123 69,135.610123 72,135.610123 L73,135.610123 C77,135.610123 82,134.610123 86,130.610123 L116,103.610123 C121,99.6101229 124,95.6101229 125,91.6101229 L139,61.6101229 C140,57.6101229 140,52.6101229 140,48.6101229 L137,31.6101229 C137,26.6101229 139,22.6101229 140,18.6101229 L145,15.6101229 C148,11.6101229 154,9.61012293 156,7.61012293 L168,1.61012293 C171,-0.389877066 175,1.61012293 177,4.61012293 L181,18.6101229 C182,22.6101229 184,26.6101229 184,31.6101229 L184,95.6101229 C184,97.6101229 184,104.610123 185,108.610123 L209,169.610123 C210,173.610123 214,177.610123 215,180.610123 L241,209.610123 C243,210.610123 248,215.610123 249,218.610123 L283,275.610123 C289,283.610123 287,286.610123 290,297.610123 C290,301.610123 293,308.610123 295,311.610123 L313,363.610123 C316,371.610123 332,461.610123 338,498.610123 C339,501.610123 338,506.610123 338,510.610123 C338,514.610123 338,521.610123 341,525.610123 L364,583.610123 C365,587.610123 369,592.610123 370,595.610123 L381,620.610123 C382,624.610123 382,631.610123 382,634.610123 L381,640.610123 C381,644.610123 380,650.610123 377,654.610123 L373,663.610123 L373,677.610123 L377,697.610123 C380,700.610123 382,706.610123 384,708.610123 L406,731.610123 C407,734.610123 410,739.610123 406,740.610123 L395,759.610123 C392,762.610123 389,765.610123 385,765.610123 L350,777.610123 C346,777.610123 339,780.610123 338,783.610123 L326,799.610123 C324,802.610123 320,805.610123 316,805.610123 L313,805.610123 C309,805.610123 304,802.610123 301,801.610123 Z" id="Path" fill="#6EAC7D" fill-rule="nonzero" transform="translate(204.010767, 403.207592) scale(1, -1) translate(-204.010767, -403.207592) "></path>
    </g>
</svg>